<svg width="16" height="17" viewBox="0 0 16 17" fill="none" xmlns="http://www.w3.org/2000/svg">
<g clip-path="url(#clip0_2_1663)">
<path fill-rule="evenodd" clip-rule="evenodd" d="M16 8.82422C16 13.2242 12.4 16.8242 8 16.8242C3.6 16.8242 0 13.2242 0 8.82422C0 4.42422 3.6 0.824219 8 0.824219C12.4 0.824219 16 4.42422 16 8.82422Z" fill="url(#paint0_linear_2_1663)"/>
<path fill-rule="evenodd" clip-rule="evenodd" d="M16 8.82422C16 13.2242 12.4 16.8242 8 16.8242C3.6 16.8242 0 13.2242 0 8.82422C0 4.42422 3.6 0.824219 8 0.824219C12.4 0.824219 16 4.42422 16 8.82422Z" fill="url(#paint1_radial_2_1663)"/>
<path fill-rule="evenodd" clip-rule="evenodd" d="M16 8.82422C16 13.2242 12.4 16.8242 8 16.8242C3.6 16.8242 0 13.2242 0 8.82422C0 4.42422 3.6 0.824219 8 0.824219C12.4 0.824219 16 4.42422 16 8.82422Z" fill="url(#paint2_radial_2_1663)"/>
<path fill-rule="evenodd" clip-rule="evenodd" d="M16 8.82422C16 13.2242 12.4 16.8242 8 16.8242C3.6 16.8242 0 13.2242 0 8.82422C0 4.42422 3.6 0.824219 8 0.824219C12.4 0.824219 16 4.42422 16 8.82422Z" fill="url(#paint3_radial_2_1663)"/>
<path fill-rule="evenodd" clip-rule="evenodd" d="M16 8.82422C16 13.2242 12.4 16.8242 8 16.8242C3.6 16.8242 0 13.2242 0 8.82422C0 4.42422 3.6 0.824219 8 0.824219C12.4 0.824219 16 4.42422 16 8.82422Z" fill="url(#paint4_radial_2_1663)"/>
<path fill-rule="evenodd" clip-rule="evenodd" d="M16 8.82422C16 13.2242 12.4 16.8242 8 16.8242C3.6 16.8242 0 13.2242 0 8.82422C0 4.42422 3.6 0.824219 8 0.824219C12.4 0.824219 16 4.42422 16 8.82422Z" fill="url(#paint5_radial_2_1663)"/>
<path fill-rule="evenodd" clip-rule="evenodd" d="M9.7 6.72422C9.6 6.42422 6.4 6.42422 6.3 6.72422C6.2 7.02422 6.9 7.42422 8 7.42422C9.1 7.42422 9.8 7.02422 9.7 6.72422Z" fill="url(#paint6_linear_2_1663)"/>
<path fill-rule="evenodd" clip-rule="evenodd" d="M5.99999 4.92422C5.99999 5.62422 5.59999 5.82422 4.99999 5.92422C4.39999 6.02422 3.89999 5.72422 3.89999 4.92422C3.89999 4.32422 4.19999 3.52422 4.99999 3.52422C5.69999 3.52422 5.99999 4.32422 5.99999 4.92422Z" fill="url(#paint7_radial_2_1663)"/>
<path fill-rule="evenodd" clip-rule="evenodd" d="M4.90001 3.92421C5.00001 4.02421 5.00001 4.32421 4.80001 4.42421C4.70001 4.52421 4.50001 4.62421 4.40001 4.42421C4.30001 4.22421 4.30001 4.12421 4.40001 3.92421C4.60001 3.82421 4.80001 3.82421 4.90001 3.92421Z" fill="#4E506A"/>
<path fill-rule="evenodd" clip-rule="evenodd" d="M10 4.92422C10 5.62422 10.4 5.82422 11.1 5.92422C11.7 6.02422 12.2 5.72422 12.2 4.92422C12.2 4.32422 11.9 3.52422 11.1 3.52422C10.3 3.52422 10 4.32422 10 4.92422Z" fill="url(#paint8_radial_2_1663)"/>
<path fill-rule="evenodd" clip-rule="evenodd" d="M11 3.92422C11.1 4.02422 11 4.22422 10.9 4.42422C10.8 4.52422 10.6 4.52422 10.5 4.42422C10.4 4.32422 10.5 4.12422 10.6 3.92422C10.8 3.72422 10.9 3.72422 11 3.92422Z" fill="#4E506A"/>
<path fill-rule="evenodd" clip-rule="evenodd" d="M3.39999 2.92421C3.19999 3.12421 3.39999 3.42421 3.69999 3.32421C4.29999 3.02421 5.49999 2.72421 6.49999 2.82421C6.79999 2.82421 6.89999 2.82421 6.79999 2.42421C6.79999 2.12421 6.39999 1.92421 5.59999 2.02421C4.39999 2.12421 3.59999 2.72421 3.39999 2.92421Z" fill="url(#paint9_radial_2_1663)"/>
<path fill-rule="evenodd" clip-rule="evenodd" d="M10.4 2.02421C9.60001 1.92421 9.20001 2.12421 9.20001 2.42421C9.10001 2.82421 9.20001 2.82421 9.50001 2.82421C10.6 2.72421 11.8 3.02421 12.3 3.32421C12.7 3.52421 12.8 3.12421 12.6 2.92421C12.4 2.72421 11.6 2.12421 10.4 2.02421Z" fill="url(#paint10_radial_2_1663)"/>
<path fill-rule="evenodd" clip-rule="evenodd" d="M9.70001 9.32421C7.60001 8.72421 6.90001 10.1242 6.90001 10.1242C6.90001 10.1242 7.10001 8.52421 5.00001 7.82421C3.00001 7.22421 1.80001 9.12421 1.70001 10.2242C1.50001 12.7242 3.70001 15.5242 4.50001 16.5242C4.60001 16.8242 4.90001 16.8242 5.20001 16.8242C6.40001 16.5242 9.80001 15.4242 11.1 13.2242C11.6 12.1242 11.7 9.92421 9.70001 9.32421Z" fill="url(#paint11_linear_2_1663)"/>
<path fill-rule="evenodd" clip-rule="evenodd" d="M9.70001 9.32421C7.60001 8.72421 6.90001 10.1242 6.90001 10.1242C6.90001 10.1242 7.10001 8.52421 5.00001 7.82421C3.00001 7.22421 1.80001 9.12421 1.70001 10.2242C1.50001 12.7242 3.70001 15.5242 4.50001 16.5242C4.60001 16.8242 4.90001 16.8242 5.20001 16.8242C6.40001 16.5242 9.80001 15.4242 11.1 13.2242C11.6 12.1242 11.7 9.92421 9.70001 9.32421Z" fill="url(#paint12_radial_2_1663)"/>
<path fill-rule="evenodd" clip-rule="evenodd" d="M9.70001 9.32421C7.60001 8.72421 6.90001 10.1242 6.90001 10.1242C6.90001 10.1242 7.10001 8.52421 5.00001 7.82421C3.00001 7.22421 1.80001 9.12421 1.70001 10.2242C1.50001 12.7242 3.70001 15.5242 4.50001 16.5242C4.60001 16.8242 4.90001 16.8242 5.20001 16.8242C6.40001 16.5242 9.80001 15.4242 11.1 13.2242C11.6 12.1242 11.7 9.92421 9.70001 9.32421Z" fill="url(#paint13_radial_2_1663)"/>
<path fill-rule="evenodd" clip-rule="evenodd" d="M9.70001 9.32421C7.60001 8.72421 6.90001 10.1242 6.90001 10.1242C6.90001 10.1242 7.10001 8.52421 5.00001 7.82421C3.00001 7.22421 1.80001 9.12421 1.70001 10.2242C1.50001 12.7242 3.70001 15.5242 4.50001 16.5242C4.60001 16.8242 4.90001 16.8242 5.20001 16.8242C6.40001 16.5242 9.80001 15.4242 11.1 13.2242C11.6 12.1242 11.7 9.92421 9.70001 9.32421Z" fill="url(#paint14_radial_2_1663)"/>
<path fill-rule="evenodd" clip-rule="evenodd" d="M9.70001 9.32421C7.60001 8.72421 6.90001 10.1242 6.90001 10.1242C6.90001 10.1242 7.10001 8.52421 5.00001 7.82421C3.00001 7.22421 1.80001 9.12421 1.70001 10.2242C1.50001 12.7242 3.70001 15.5242 4.50001 16.5242C4.60001 16.8242 4.90001 16.8242 5.20001 16.8242C6.40001 16.5242 9.80001 15.4242 11.1 13.2242C11.6 12.1242 11.7 9.92421 9.70001 9.32421Z" fill="url(#paint15_radial_2_1663)"/>
<path fill-rule="evenodd" clip-rule="evenodd" d="M9.70001 9.32421C7.60001 8.72421 6.90001 10.1242 6.90001 10.1242C6.90001 10.1242 7.10001 8.52421 5.00001 7.82421C3.00001 7.22421 1.80001 9.12421 1.70001 10.2242C1.50001 12.7242 3.70001 15.5242 4.50001 16.5242C4.60001 16.8242 4.90001 16.8242 5.20001 16.8242C6.40001 16.5242 9.80001 15.4242 11.1 13.2242C11.6 12.1242 11.7 9.92421 9.70001 9.32421Z" fill="url(#paint16_radial_2_1663)"/>
<path fill-rule="evenodd" clip-rule="evenodd" d="M9.70001 9.32421C7.60001 8.72421 6.90001 10.1242 6.90001 10.1242C6.90001 10.1242 7.10001 8.52421 5.00001 7.82421C3.00001 7.22421 1.80001 9.12421 1.70001 10.2242C1.50001 12.7242 3.70001 15.5242 4.50001 16.5242C4.60001 16.8242 4.90001 16.8242 5.20001 16.8242C6.40001 16.5242 9.80001 15.4242 11.1 13.2242C11.6 12.1242 11.7 9.92421 9.70001 9.32421Z" fill="url(#paint17_radial_2_1663)"/>
<mask id="mask0_2_1663" style="mask-type:alpha" maskUnits="userSpaceOnUse" x="0" y="0" width="16" height="17">
<path fill-rule="evenodd" clip-rule="evenodd" d="M16 8.82422C16 13.2242 12.4 16.8242 8 16.8242C3.6 16.8242 0 13.2242 0 8.82422C0 4.42422 3.6 0.824219 8 0.824219C12.4 0.824219 16 4.42422 16 8.82422Z" fill="white"/>
</mask>
<g mask="url(#mask0_2_1663)">
<path fill-rule="evenodd" clip-rule="evenodd" d="M1.29999 8.52422C0.799992 8.02422 -0.100007 7.72422 -0.200007 8.92422C-0.300007 9.82422 0.0999925 11.4242 1.19999 12.3242C3.99999 14.5242 6.49999 13.3242 6.59999 11.7242C6.69999 10.5242 5.19999 10.6242 4.79999 10.6242C4.79999 10.6242 4.79999 10.6242 4.79999 10.5242C4.89999 10.4242 5.09999 10.3242 5.19999 10.2242C5.59999 9.92422 5.39999 9.42422 4.89999 9.52422C4.79999 9.52422 3.59999 9.92422 2.79999 9.62422C1.99999 9.32422 1.89999 9.02422 1.29999 8.52422Z" fill="url(#paint18_radial_2_1663)"/>
<path d="M14.3 8.62423C14.6 8.02423 15.1 8.22423 15.4 8.32423C15.8 8.42423 16.1 8.72423 16.1 9.32423C16.1 10.8242 15.9 12.2242 14.6 13.6242C12.3 16.2242 8.40001 15.8242 8.00001 14.2242C7.70001 13.0242 9.10002 12.8242 9.60002 12.8242V12.7242C9.40002 12.6242 9.30002 12.5242 9.10002 12.4242C8.70002 12.1242 8.80001 11.5242 9.30001 11.6242C9.90001 11.7242 10.7 11.9242 11.3 11.8242C13.2 11.6242 13.5 10.1242 14.3 8.62423Z" fill="url(#paint19_radial_2_1663)"/>
</g>
</g>
<defs>
<linearGradient id="paint0_linear_2_1663" x1="7.992" y1="16.0322" x2="7.992" y2="2.01622" gradientUnits="userSpaceOnUse">
<stop stop-color="#F28A2D"/>
<stop offset="1" stop-color="#FDE86F"/>
</linearGradient>
<radialGradient id="paint1_radial_2_1663" cx="0" cy="0" r="1" gradientUnits="userSpaceOnUse" gradientTransform="translate(7.992 8.81622) scale(8)">
<stop stop-color="#F28A2D" stop-opacity="0"/>
<stop offset="1" stop-color="#F08423" stop-opacity="0.34"/>
</radialGradient>
<radialGradient id="paint2_radial_2_1663" cx="0" cy="0" r="1" gradientUnits="userSpaceOnUse" gradientTransform="translate(1.73068 9.14483) rotate(24.1484) scale(1.616 1.24996)">
<stop stop-color="#F28A2D" stop-opacity="0.5"/>
<stop offset="1" stop-color="#F28A2D" stop-opacity="0"/>
</radialGradient>
<radialGradient id="paint3_radial_2_1663" cx="0" cy="0" r="1" gradientUnits="userSpaceOnUse" gradientTransform="translate(11.8677 12.5978) rotate(-38.243) scale(4.52801 1.64733)">
<stop stop-color="#F28A2D" stop-opacity="0.5"/>
<stop offset="1" stop-color="#F28A2D" stop-opacity="0"/>
</radialGradient>
<radialGradient id="paint4_radial_2_1663" cx="0" cy="0" r="1" gradientUnits="userSpaceOnUse" gradientTransform="translate(5.09371 2.85398) rotate(-10.3559) scale(1.712 0.340446)">
<stop stop-color="#D45F00" stop-opacity="0.15"/>
<stop offset="1" stop-color="#F28A2D" stop-opacity="0"/>
</radialGradient>
<radialGradient id="paint5_radial_2_1663" cx="0" cy="0" r="1" gradientUnits="userSpaceOnUse" gradientTransform="translate(10.8914 2.97126) rotate(11.5352) scale(1.696 0.337278)">
<stop stop-color="#D45F00" stop-opacity="0.15"/>
<stop offset="1" stop-color="#D45F00" stop-opacity="0"/>
</radialGradient>
<linearGradient id="paint6_linear_2_1663" x1="7.99974" y1="6.13354" x2="7.99974" y2="7.55745" gradientUnits="userSpaceOnUse">
<stop stop-color="#482314"/>
<stop offset="1" stop-color="#9A4111"/>
</linearGradient>
<radialGradient id="paint7_radial_2_1663" cx="0" cy="0" r="1" gradientUnits="userSpaceOnUse" gradientTransform="translate(4.99278 5.09536) rotate(-90) scale(1.85963 1.85971)">
<stop stop-color="#3B446B"/>
<stop offset="0.688" stop-color="#202340"/>
</radialGradient>
<radialGradient id="paint8_radial_2_1663" cx="0" cy="0" r="1" gradientUnits="userSpaceOnUse" gradientTransform="translate(11.0068 5.09421) rotate(-90) scale(1.85963 1.85971)">
<stop stop-color="#3B446B"/>
<stop offset="0.688" stop-color="#202340"/>
</radialGradient>
<radialGradient id="paint9_radial_2_1663" cx="0" cy="0" r="1" gradientUnits="userSpaceOnUse" gradientTransform="translate(5.0015 2.53486) rotate(-104.427) scale(0.405461 1.87948)">
<stop stop-color="#E38200"/>
<stop offset="1" stop-color="#CD6700"/>
</radialGradient>
<radialGradient id="paint10_radial_2_1663" cx="0" cy="0" r="1" gradientUnits="userSpaceOnUse" gradientTransform="translate(10.9348 2.35546) rotate(-79.0815) scale(0.427206 2.53522)">
<stop stop-color="#E38200"/>
<stop offset="1" stop-color="#CD6700"/>
</radialGradient>
<linearGradient id="paint11_linear_2_1663" x1="6.75338" y1="10.5719" x2="4.72269" y2="17.114" gradientUnits="userSpaceOnUse">
<stop stop-color="#F34462"/>
<stop offset="1" stop-color="#CC0820"/>
</linearGradient>
<radialGradient id="paint12_radial_2_1663" cx="0" cy="0" r="1" gradientUnits="userSpaceOnUse" gradientTransform="translate(8.84055 11.7592) rotate(20.3927) scale(2.63291 2.63292)">
<stop stop-color="#FF7091" stop-opacity="0.7"/>
<stop offset="1" stop-color="#FE6D8E" stop-opacity="0"/>
</radialGradient>
<radialGradient id="paint13_radial_2_1663" cx="0" cy="0" r="1" gradientUnits="userSpaceOnUse" gradientTransform="translate(4.26826 10.433) rotate(20.3927) scale(2.63291 2.63292)">
<stop stop-color="#FF7091" stop-opacity="0.7"/>
<stop offset="1" stop-color="#FE6D8E" stop-opacity="0"/>
</radialGradient>
<radialGradient id="paint14_radial_2_1663" cx="0" cy="0" r="1" gradientUnits="userSpaceOnUse" gradientTransform="translate(3.9844 12.5866) rotate(101.61) scale(2.26066 3.11294)">
<stop stop-color="#9C0600"/>
<stop offset="1" stop-color="#9C0600" stop-opacity="0"/>
</radialGradient>
<radialGradient id="paint15_radial_2_1663" cx="0" cy="0" r="1" gradientUnits="userSpaceOnUse" gradientTransform="translate(11.4141 12.8169) rotate(30.6331) scale(1.36185 1.70916)">
<stop stop-color="#9C0600" stop-opacity="0.5"/>
<stop offset="1" stop-color="#9C0600" stop-opacity="0"/>
</radialGradient>
<radialGradient id="paint16_radial_2_1663" cx="0" cy="0" r="1" gradientUnits="userSpaceOnUse" gradientTransform="translate(2.05675 9.93766) rotate(-20.1593) scale(1.18027 1.52097)">
<stop stop-color="#9C0600" stop-opacity="0.5"/>
<stop offset="1" stop-color="#9C0600" stop-opacity="0"/>
</radialGradient>
<radialGradient id="paint17_radial_2_1663" cx="0" cy="0" r="1" gradientUnits="userSpaceOnUse" gradientTransform="translate(8.93502 14.7388) rotate(34.0715) scale(1.58883 1.72079)">
<stop stop-color="#9C0600" stop-opacity="0.999"/>
<stop offset="1" stop-color="#9C0600" stop-opacity="0"/>
</radialGradient>
<radialGradient id="paint18_radial_2_1663" cx="0" cy="0" r="1" gradientUnits="userSpaceOnUse" gradientTransform="translate(-0.0808923 8.29337) rotate(36.5187) scale(6.6485 6.64843)">
<stop stop-color="#EDA83A"/>
<stop offset="1" stop-color="#FFDC5E"/>
</radialGradient>
<radialGradient id="paint19_radial_2_1663" cx="0" cy="0" r="1" gradientUnits="userSpaceOnUse" gradientTransform="translate(15.654 8.56123) scale(8.846)">
<stop stop-color="#EDA83A"/>
<stop offset="1" stop-color="#FFDC5E"/>
</radialGradient>
<clipPath id="clip0_2_1663">
<rect width="16" height="16" fill="white" transform="translate(0 0.824219)"/>
</clipPath>
</defs>
</svg>
