<svg width="21" height="20" viewBox="0 0 21 20" fill="none" xmlns="http://www.w3.org/2000/svg">
<path d="M16.3334 8.95832H14.6667C12.6501 8.95832 11.5417 7.84999 11.5417 5.83332V4.16666C11.5417 2.14999 12.6501 1.04166 14.6667 1.04166H16.3334C18.3501 1.04166 19.4584 2.14999 19.4584 4.16666V5.83332C19.4584 7.84999 18.3501 8.95832 16.3334 8.95832ZM14.6667 2.29166C13.3501 2.29166 12.7917 2.84999 12.7917 4.16666V5.83332C12.7917 7.14999 13.3501 7.70832 14.6667 7.70832H16.3334C17.6501 7.70832 18.2084 7.14999 18.2084 5.83332V4.16666C18.2084 2.84999 17.6501 2.29166 16.3334 2.29166H14.6667Z" fill="#393939"/>
<path d="M6.33341 18.9583H4.66675C2.65008 18.9583 1.54175 17.85 1.54175 15.8333V14.1667C1.54175 12.15 2.65008 11.0417 4.66675 11.0417H6.33341C8.35008 11.0417 9.45841 12.15 9.45841 14.1667V15.8333C9.45841 17.85 8.35008 18.9583 6.33341 18.9583ZM4.66675 12.2917C3.35008 12.2917 2.79175 12.85 2.79175 14.1667V15.8333C2.79175 17.15 3.35008 17.7083 4.66675 17.7083H6.33341C7.65008 17.7083 8.20841 17.15 8.20841 15.8333V14.1667C8.20841 12.85 7.65008 12.2917 6.33341 12.2917H4.66675Z" fill="#393939"/>
<path d="M5.50008 8.95832C3.31675 8.95832 1.54175 7.18332 1.54175 4.99999C1.54175 2.81666 3.31675 1.04166 5.50008 1.04166C7.68341 1.04166 9.45841 2.81666 9.45841 4.99999C9.45841 7.18332 7.68341 8.95832 5.50008 8.95832ZM5.50008 2.29166C4.00841 2.29166 2.79175 3.50832 2.79175 4.99999C2.79175 6.49166 4.00841 7.70832 5.50008 7.70832C6.99175 7.70832 8.20841 6.49166 8.20841 4.99999C8.20841 3.50832 6.99175 2.29166 5.50008 2.29166Z" fill="#393939"/>
<path d="M15.5001 18.9583C13.3167 18.9583 11.5417 17.1833 11.5417 15C11.5417 12.8167 13.3167 11.0417 15.5001 11.0417C17.6834 11.0417 19.4584 12.8167 19.4584 15C19.4584 17.1833 17.6834 18.9583 15.5001 18.9583ZM15.5001 12.2917C14.0084 12.2917 12.7917 13.5083 12.7917 15C12.7917 16.4917 14.0084 17.7083 15.5001 17.7083C16.9917 17.7083 18.2084 16.4917 18.2084 15C18.2084 13.5083 16.9917 12.2917 15.5001 12.2917Z" fill="#393939"/>
</svg>
