<svg width="20" height="20" viewBox="0 0 20 20" fill="none" xmlns="http://www.w3.org/2000/svg">
<path d="M6.07606 17.3535L1.66675 18.3333L2.64659 13.924C2.02128 12.7547 1.66675 11.4187 1.66675 9.99999C1.66675 5.39761 5.39771 1.66666 10.0001 1.66666C14.6024 1.66666 18.3334 5.39761 18.3334 9.99999C18.3334 14.6023 14.6024 18.3333 10.0001 18.3333C8.58133 18.3333 7.24541 17.9788 6.07606 17.3535ZM6.31737 15.5925L6.86198 15.8837C7.81881 16.3954 8.888 16.6667 10.0001 16.6667C13.682 16.6667 16.6667 13.6819 16.6667 9.99999C16.6667 6.31809 13.682 3.33332 10.0001 3.33332C6.31818 3.33332 3.33341 6.31809 3.33341 9.99999C3.33341 11.1121 3.60466 12.1812 4.11632 13.1381L4.40755 13.6827L3.86188 16.1382L6.31737 15.5925Z" fill="black"/>
</svg>
