<svg width="24" height="24" viewBox="0 0 25 24" fill="none" xmlns="http://www.w3.org/2000/svg">
<path d="M2.26123 8.99374C2.26123 5.68349 4.93777 3 8.26189 3H16.2605C19.5746 3 22.2612 5.69478 22.2612 8.99374V21H8.26189C4.94782 21 2.26123 18.3052 2.26123 15.0063V8.99374ZM20.2612 19V8.99374C20.2612 6.79539 18.4661 5 16.2605 5H8.26189C6.04581 5 4.26123 6.78458 4.26123 8.99374V15.0063C4.26123 17.2046 6.05635 19 8.26189 19H20.2612ZM14.2612 11H16.2612V13H14.2612V11ZM8.26123 11H10.2612V13H8.26123V11Z" fill="black"/>
</svg>
