<svg width="52" height="72" viewBox="0 0 52 72" fill="none" xmlns="http://www.w3.org/2000/svg">
<circle opacity="0.5" cx="26" cy="26" r="25" stroke="#9797BD" stroke-width="2" stroke-linecap="round" stroke-linejoin="round"/>
<circle opacity="0.3" cx="26" cy="26" r="20" stroke="#9797BD" stroke-dasharray="10 10"/>
<g clip-path="url(#clip0_44_45)">
<path d="M26.8 20H25.2V32H26.8V20Z" fill="#262628"/>
<path d="M20 25.2V26.8H32V25.2H20Z" fill="#262628"/>
</g>
<path d="M16.9629 60.4688L18.9434 64.541L20.9238 60.4688H22.5527L19.6816 65.8594V69H18.1992V65.8594L15.3281 60.4688H16.9629ZM22.6875 65.9004V65.7656C22.6875 65.3086 22.7539 64.8848 22.8867 64.4941C23.0195 64.0996 23.2109 63.7578 23.4609 63.4688C23.7148 63.1758 24.0234 62.9492 24.3867 62.7891C24.7539 62.625 25.168 62.543 25.6289 62.543C26.0938 62.543 26.5078 62.625 26.8711 62.7891C27.2383 62.9492 27.5488 63.1758 27.8027 63.4688C28.0566 63.7578 28.25 64.0996 28.3828 64.4941C28.5156 64.8848 28.582 65.3086 28.582 65.7656V65.9004C28.582 66.3574 28.5156 66.7812 28.3828 67.1719C28.25 67.5625 28.0566 67.9043 27.8027 68.1973C27.5488 68.4863 27.2402 68.7129 26.877 68.877C26.5137 69.0371 26.1016 69.1172 25.6406 69.1172C25.1758 69.1172 24.7598 69.0371 24.3926 68.877C24.0293 68.7129 23.7207 68.4863 23.4668 68.1973C23.2129 67.9043 23.0195 67.5625 22.8867 67.1719C22.7539 66.7812 22.6875 66.3574 22.6875 65.9004ZM24.0996 65.7656V65.9004C24.0996 66.1855 24.1289 66.4551 24.1875 66.709C24.2461 66.9629 24.3379 67.1855 24.4629 67.377C24.5879 67.5684 24.748 67.7188 24.9434 67.8281C25.1387 67.9375 25.3711 67.9922 25.6406 67.9922C25.9023 67.9922 26.1289 67.9375 26.3203 67.8281C26.5156 67.7188 26.6758 67.5684 26.8008 67.377C26.9258 67.1855 27.0176 66.9629 27.0762 66.709C27.1387 66.4551 27.1699 66.1855 27.1699 65.9004V65.7656C27.1699 65.4844 27.1387 65.2188 27.0762 64.9688C27.0176 64.7148 26.9238 64.4902 26.7949 64.2949C26.6699 64.0996 26.5098 63.9473 26.3145 63.8379C26.123 63.7246 25.8945 63.668 25.6289 63.668C25.3633 63.668 25.1328 63.7246 24.9375 63.8379C24.7461 63.9473 24.5879 64.0996 24.4629 64.2949C24.3379 64.4902 24.2461 64.7148 24.1875 64.9688C24.1289 65.2188 24.0996 65.4844 24.0996 65.7656ZM33.5801 67.5059V62.6602H34.998V69H33.6621L33.5801 67.5059ZM33.7793 66.1875L34.2539 66.1758C34.2539 66.6016 34.207 66.9941 34.1133 67.3535C34.0195 67.709 33.875 68.0195 33.6797 68.2852C33.4844 68.5469 33.2344 68.752 32.9297 68.9004C32.625 69.0449 32.2598 69.1172 31.834 69.1172C31.5254 69.1172 31.2422 69.0723 30.9844 68.9824C30.7266 68.8926 30.5039 68.7539 30.3164 68.5664C30.1328 68.3789 29.9902 68.1348 29.8887 67.834C29.7871 67.5332 29.7363 67.1738 29.7363 66.7559V62.6602H31.1484V66.7676C31.1484 66.998 31.1758 67.1914 31.2305 67.3477C31.2852 67.5 31.3594 67.623 31.4531 67.7168C31.5469 67.8105 31.6562 67.877 31.7812 67.916C31.9062 67.9551 32.0391 67.9746 32.1797 67.9746C32.582 67.9746 32.8984 67.8965 33.1289 67.7402C33.3633 67.5801 33.5293 67.3652 33.627 67.0957C33.7285 66.8262 33.7793 66.5234 33.7793 66.1875Z" fill="#262628"/>
<defs>
<clipPath id="clip0_44_45">
<rect width="12" height="12" fill="white" transform="translate(20 20)"/>
</clipPath>
</defs>
</svg>
