<svg width="16" height="17" viewBox="0 0 16 17" fill="none" xmlns="http://www.w3.org/2000/svg">
<g clip-path="url(#clip0_2_1664)">
<path d="M8 0.824219C5.87827 0.824219 3.84344 1.66707 2.34315 3.16737C0.842855 4.66766 0 6.70249 0 8.82422C0 10.9459 0.842855 12.9808 2.34315 14.4811C3.84344 15.9813 5.87827 16.8242 8 16.8242C10.1217 16.8242 12.1566 15.9813 13.6569 14.4811C15.1571 12.9808 16 10.9459 16 8.82422C16 6.70249 15.1571 4.66766 13.6569 3.16737C12.1566 1.66707 10.1217 0.824219 8 0.824219Z" fill="url(#paint0_linear_2_1664)"/>
<path d="M10.4732 4.82422C8.27523 4.82422 8.00023 6.64822 8.00023 6.64822C8.00023 6.64822 7.72623 4.82422 5.52823 4.82422C3.41423 4.82422 2.79823 7.04622 3.05623 8.23422C3.73623 11.3742 8.00023 13.5742 8.00023 13.5742C8.00023 13.5742 12.2652 11.3742 12.9452 8.23422C13.2022 7.04622 12.5852 4.82422 10.4732 4.82422Z" fill="white"/>
</g>
<defs>
<linearGradient id="paint0_linear_2_1664" x1="8" y1="0.824219" x2="8" y2="16.8242" gradientUnits="userSpaceOnUse">
<stop stop-color="#FF6680"/>
<stop offset="1" stop-color="#E61739"/>
</linearGradient>
<clipPath id="clip0_2_1664">
<rect width="16" height="16" fill="white" transform="translate(0 0.824219)"/>
</clipPath>
</defs>
</svg>
