<svg width="25" height="24" viewBox="0 0 25 24" fill="none" xmlns="http://www.w3.org/2000/svg">
<path fill-rule="evenodd" clip-rule="evenodd" d="M12.7393 21C7.76826 21 3.73926 16.971 3.73926 12C3.73926 7.029 7.76826 3 12.7393 3C17.7103 3 21.7393 7.029 21.7393 12C21.7393 16.971 17.7103 21 12.7393 21Z" stroke="#262628" stroke-width="1.5" stroke-linecap="round" stroke-linejoin="round"/>
<path d="M12.7383 11.625C12.5313 11.625 12.3633 11.793 12.3653 12C12.3653 12.207 12.5333 12.375 12.7403 12.375C12.9473 12.375 13.1153 12.207 13.1153 12C13.1143 11.793 12.9463 11.625 12.7383 11.625Z" fill="#262628" stroke="#262628" stroke-linecap="round" stroke-linejoin="round"/>
<path d="M16.7383 11.625C16.5313 11.625 16.3633 11.793 16.3653 12C16.3653 12.207 16.5333 12.375 16.7403 12.375C16.9473 12.375 17.1153 12.207 17.1153 12C17.1143 11.793 16.9463 11.625 16.7383 11.625Z" fill="#262628" stroke="#262628" stroke-linecap="round" stroke-linejoin="round"/>
<path d="M8.73825 11.625C8.53125 11.625 8.36325 11.793 8.36525 12C8.36525 12.207 8.53325 12.375 8.74025 12.375C8.94725 12.375 9.11525 12.207 9.11525 12C9.11425 11.793 8.94625 11.625 8.73825 11.625Z" fill="#262628" stroke="#262628" stroke-linecap="round" stroke-linejoin="round"/>
</svg>
