<svg width="16" height="17" viewBox="0 0 16 17" fill="none" xmlns="http://www.w3.org/2000/svg">
<g clip-path="url(#clip0_2_1667)">
<path d="M16 8.82422C16 10.9459 15.1571 12.9808 13.6569 14.4811C12.1566 15.9813 10.1217 16.8242 8 16.8242C5.87827 16.8242 3.84344 15.9813 2.34315 14.4811C0.842855 12.9808 0 10.9459 0 8.82422C0 6.70249 0.842855 4.66766 2.34315 3.16737C3.84344 1.66707 5.87827 0.824219 8 0.824219C10.1217 0.824219 12.1566 1.66707 13.6569 3.16737C15.1571 4.66766 16 6.70249 16 8.82422Z" fill="url(#paint0_linear_2_1667)"/>
<path d="M5.6431 11.7122C5.4851 13.5572 6.3691 14.8242 8.0001 14.8242C9.6301 14.8242 10.5151 13.5572 10.3571 11.7122C10.2001 9.86622 9.2421 8.82422 8.0001 8.82422C6.7581 8.82422 5.8001 9.86622 5.6431 11.7122Z" fill="url(#paint1_linear_2_1667)"/>
<path d="M3.5 6.32422C3.5 5.49622 4.059 4.82422 4.75 4.82422C5.441 4.82422 6 5.49622 6 6.32422C6 7.15322 5.441 7.82422 4.75 7.82422C4.059 7.82422 3.5 7.15322 3.5 6.32422ZM10 6.32422C10 5.49622 10.56 4.82422 11.25 4.82422C11.941 4.82422 12.5 5.49622 12.5 6.32422C12.5 7.15322 11.941 7.82422 11.25 7.82422C10.56 7.82422 10 7.15322 10 6.32422Z" fill="url(#paint2_linear_2_1667)"/>
<g filter="url(#filter0_i_2_1667)">
<path d="M3.5 6.32422C3.5 5.49622 4.059 4.82422 4.75 4.82422C5.441 4.82422 6 5.49622 6 6.32422C6 7.15322 5.441 7.82422 4.75 7.82422C4.059 7.82422 3.5 7.15322 3.5 6.32422ZM10 6.32422C10 5.49622 10.56 4.82422 11.25 4.82422C11.941 4.82422 12.5 5.49622 12.5 6.32422C12.5 7.15322 11.941 7.82422 11.25 7.82422C10.56 7.82422 10 7.15322 10 6.32422Z" fill="black"/>
</g>
<path d="M4.48146 5.39139C4.66746 5.43339 4.77146 5.64339 4.71346 5.86039C4.65646 6.07839 4.45946 6.22039 4.27346 6.17839C4.08746 6.13639 3.98346 5.92639 4.04146 5.70839C4.09846 5.49239 4.29546 5.34839 4.48146 5.39139ZM11.1395 5.45439C11.3455 5.50139 11.4615 5.73439 11.3975 5.97439C11.3335 6.21739 11.1155 6.37439 10.9085 6.32839C10.7025 6.28239 10.5865 6.04839 10.6505 5.80739C10.7135 5.56539 10.9325 5.40739 11.1405 5.45439H11.1395Z" fill="#4E506A"/>
<g filter="url(#filter1_d_2_1667)">
<path d="M11.0682 2.52005C11.1202 2.51505 11.1722 2.51305 11.2252 2.51305C11.7122 2.51305 12.2152 2.71705 12.5972 3.07505C12.6661 3.14071 12.7069 3.23052 12.711 3.32561C12.7151 3.42071 12.6822 3.5137 12.6192 3.58505C12.5888 3.62004 12.5515 3.64852 12.5098 3.66876C12.4681 3.689 12.4227 3.70059 12.3763 3.70283C12.33 3.70507 12.2837 3.69792 12.2402 3.6818C12.1967 3.66569 12.1569 3.64094 12.1232 3.60905C11.8482 3.35005 11.4672 3.20905 11.1312 3.24005C11.0147 3.24877 10.9014 3.28293 10.7995 3.34011C10.6976 3.3973 10.6094 3.47613 10.5412 3.57105C10.5138 3.60825 10.4792 3.63959 10.4395 3.66322C10.3998 3.68685 10.3558 3.70229 10.3101 3.70863C10.2643 3.71496 10.2177 3.71207 10.1731 3.70012C10.1285 3.68817 10.0867 3.66741 10.0502 3.63905C9.9755 3.57971 9.92675 3.49367 9.91425 3.39909C9.90175 3.3045 9.92647 3.20876 9.98321 3.13205C10.1092 2.95779 10.2714 2.81286 10.4587 2.70722C10.646 2.60158 10.8539 2.53773 11.0682 2.52005ZM3.40321 3.07505C3.77398 2.72244 4.26362 2.52187 4.77521 2.51305C5.0169 2.50781 5.25625 2.56141 5.47261 2.66925C5.68898 2.77708 5.87588 2.93591 6.01721 3.13205C6.07381 3.20872 6.09855 3.30432 6.08625 3.39883C6.07394 3.49334 6.02555 3.57942 5.95121 3.63905C5.91465 3.66743 5.87279 3.68822 5.82808 3.70018C5.78338 3.71214 5.73673 3.71504 5.69088 3.7087C5.64504 3.70237 5.60092 3.68693 5.56114 3.66328C5.52135 3.63964 5.48669 3.60828 5.45921 3.57105C5.39097 3.47617 5.30279 3.39738 5.20087 3.3402C5.09895 3.28302 4.98574 3.24884 4.86921 3.24005C4.53421 3.20905 4.15221 3.35005 3.87721 3.60905C3.84352 3.64094 3.80373 3.66569 3.76023 3.6818C3.71673 3.69792 3.67042 3.70507 3.62409 3.70283C3.57776 3.70059 3.53235 3.689 3.49061 3.66876C3.44887 3.64852 3.41166 3.62004 3.38121 3.58505C3.31821 3.5137 3.2853 3.42071 3.2894 3.32561C3.29351 3.23052 3.3343 3.14071 3.40321 3.07505Z" fill="black"/>
</g>
<path d="M11.0682 2.52005C11.1202 2.51505 11.1722 2.51305 11.2252 2.51305C11.7122 2.51305 12.2152 2.71705 12.5972 3.07505C12.6661 3.14071 12.7069 3.23052 12.711 3.32561C12.7151 3.42071 12.6822 3.5137 12.6192 3.58505C12.5888 3.62004 12.5515 3.64852 12.5098 3.66876C12.4681 3.689 12.4227 3.70059 12.3763 3.70283C12.33 3.70507 12.2837 3.69792 12.2402 3.6818C12.1967 3.66569 12.1569 3.64094 12.1232 3.60905C11.8482 3.35005 11.4672 3.20905 11.1312 3.24005C11.0147 3.24877 10.9014 3.28293 10.7995 3.34011C10.6976 3.3973 10.6094 3.47613 10.5412 3.57105C10.5138 3.60825 10.4792 3.63959 10.4395 3.66322C10.3998 3.68685 10.3558 3.70229 10.3101 3.70863C10.2643 3.71496 10.2177 3.71207 10.1731 3.70012C10.1285 3.68817 10.0867 3.66741 10.0502 3.63905C9.9755 3.57971 9.92675 3.49367 9.91425 3.39909C9.90175 3.3045 9.92647 3.20876 9.98321 3.13205C10.1092 2.95779 10.2714 2.81286 10.4587 2.70722C10.646 2.60158 10.8539 2.53773 11.0682 2.52005ZM3.40321 3.07505C3.77398 2.72244 4.26362 2.52187 4.77521 2.51305C5.0169 2.50781 5.25625 2.56141 5.47261 2.66925C5.68898 2.77708 5.87588 2.93591 6.01721 3.13205C6.07381 3.20872 6.09855 3.30432 6.08625 3.39883C6.07394 3.49334 6.02555 3.57942 5.95121 3.63905C5.91465 3.66743 5.87279 3.68822 5.82808 3.70018C5.78338 3.71214 5.73673 3.71504 5.69088 3.7087C5.64504 3.70237 5.60092 3.68693 5.56114 3.66328C5.52135 3.63964 5.48669 3.60828 5.45921 3.57105C5.39097 3.47617 5.30279 3.39738 5.20087 3.3402C5.09895 3.28302 4.98574 3.24884 4.86921 3.24005C4.53421 3.20905 4.15221 3.35005 3.87721 3.60905C3.84352 3.64094 3.80373 3.66569 3.76023 3.6818C3.71673 3.69792 3.67042 3.70507 3.62409 3.70283C3.57776 3.70059 3.53235 3.689 3.49061 3.66876C3.44887 3.64852 3.41166 3.62004 3.38121 3.58505C3.31821 3.5137 3.2853 3.42071 3.2894 3.32561C3.29351 3.23052 3.3343 3.14071 3.40321 3.07505Z" fill="url(#paint3_linear_2_1667)"/>
</g>
<defs>
<filter id="filter0_i_2_1667" x="3.5" y="4.82422" width="9" height="3" filterUnits="userSpaceOnUse" color-interpolation-filters="sRGB">
<feFlood flood-opacity="0" result="BackgroundImageFix"/>
<feBlend mode="normal" in="SourceGraphic" in2="BackgroundImageFix" result="shape"/>
<feColorMatrix in="SourceAlpha" type="matrix" values="0 0 0 0 0 0 0 0 0 0 0 0 0 0 0 0 0 0 127 0" result="hardAlpha"/>
<feOffset/>
<feGaussianBlur stdDeviation="0.5"/>
<feComposite in2="hardAlpha" operator="arithmetic" k2="-1" k3="1"/>
<feColorMatrix type="matrix" values="0 0 0 0 0.0980392 0 0 0 0 0.101961 0 0 0 0 0.2 0 0 0 0.819684 0"/>
<feBlend mode="normal" in2="shape" result="effect1_innerShadow_2_1667"/>
</filter>
<filter id="filter1_d_2_1667" x="0.289062" y="0.512695" width="15.4223" height="7.19926" filterUnits="userSpaceOnUse" color-interpolation-filters="sRGB">
<feFlood flood-opacity="0" result="BackgroundImageFix"/>
<feColorMatrix in="SourceAlpha" type="matrix" values="0 0 0 0 0 0 0 0 0 0 0 0 0 0 0 0 0 0 127 0" result="hardAlpha"/>
<feOffset dy="1"/>
<feGaussianBlur stdDeviation="1.5"/>
<feColorMatrix type="matrix" values="0 0 0 0 0.803922 0 0 0 0 0.388235 0 0 0 0 0.00392157 0 0 0 0.145679 0"/>
<feBlend mode="normal" in2="BackgroundImageFix" result="effect1_dropShadow_2_1667"/>
<feBlend mode="normal" in="SourceGraphic" in2="effect1_dropShadow_2_1667" result="shape"/>
</filter>
<linearGradient id="paint0_linear_2_1667" x1="8" y1="2.46422" x2="8" y2="16.8242" gradientUnits="userSpaceOnUse">
<stop stop-color="#FEEA70"/>
<stop offset="1" stop-color="#F69B30"/>
</linearGradient>
<linearGradient id="paint1_linear_2_1667" x1="8" y1="8.82422" x2="8" y2="14.8242" gradientUnits="userSpaceOnUse">
<stop stop-color="#472315"/>
<stop offset="1" stop-color="#8B3A0E"/>
</linearGradient>
<linearGradient id="paint2_linear_2_1667" x1="8" y1="4.82422" x2="8" y2="7.82422" gradientUnits="userSpaceOnUse">
<stop stop-color="#191A33"/>
<stop offset="0.872" stop-color="#3B426A"/>
</linearGradient>
<linearGradient id="paint3_linear_2_1667" x1="8" y1="2.51222" x2="8" y2="3.71222" gradientUnits="userSpaceOnUse">
<stop stop-color="#E78E0D"/>
<stop offset="1" stop-color="#CB6000"/>
</linearGradient>
<clipPath id="clip0_2_1667">
<rect width="16" height="16" fill="white" transform="translate(0 0.824219)"/>
</clipPath>
</defs>
</svg>
